# xmcd
#
# Track frame offsets: 
#        150
#        14133
#        35211
#        50644
#        64418
#        83959
#        101565
#        117867
#        136940
#        159479
#        176280
#
# Disc length: 2547 seconds
#
# Revision: 0
# Processed by: cddbd v1.5.2PL0 Copyright (c) Steve Scherf et al.
# Submitted via: ExactAudioCopy v1.3
#
DISCID=9909f10b
DTITLE=Adrian Byron Burns - Et Caetera
DYEAR=2019
DGENRE=Blues
TTITLE0=Reflection
TTITLE1=All That Matters
TTITLE2=Akwardboy
TTITLE3=Massa John
TTITLE4=Freedom Land
TTITLE5=Cautionary Tale
TTITLE6=Sandman
TTITLE7=Finally... When You Fall
TTITLE8=Can't Find The Will
TTITLE9=Mate Kudasai
TTITLE10=Inside Danse
EXTD=
EXTT0=
EXTT1=
EXTT2=
EXTT3=
EXTT4=
EXTT5=
EXTT6=
EXTT7=
EXTT8=
EXTT9=
EXTT10=
PLAYORDER=
